PathFileType	4	(X/Y/Z)	W08_1_OpenSim.trc																																																																																																																						
DataRate	CameraRate	NumFrames	NumMarkers	Units	OrigDataRate	OrigDataStartFrame	OrigNumFrames																																																																																																																		
100	100	10	40	mm	100	1501	3000																																																																																																																		
Frame#	Time	R.ASIS			R.PSIS			S2			L.PSIS			L.ASIS			R.TH1			R.TH2			R.TH3			R.MKnee			R.Knee			R.SH1			R.SH2			R.SH3			R.SH4			R.Ankle			R.MAnkle			R.Heel			R.MT5			R.MT1			L.TH1			L.TH2			L.TH3			L.TH4			L.MKnee			L.Knee			L.SH1			L.SH2			L.SH3			L.Ankle			L.MAnkle			L.Heel			L.MT5			L.MT1			R.Acr			L.Acr			C7			T10			Clav			Sternum			R.Back		
		X1	Y1	Z1	X2	Y2	Z2	X3	Y3	Z3	X4	Y4	Z4	X5	Y5	Z5	X6	Y6	Z6	X7	Y7	Z7	X8	Y8	Z8	X9	Y9	Z9	X10	Y10	Z10	X11	Y11	Z11	X12	Y12	Z12	X13	Y13	Z13	X14	Y14	Z14	X15	Y15	Z15	X16	Y16	Z16	X17	Y17	Z17	X18	Y18	Z18	X19	Y19	Z19	X20	Y20	Z20	X21	Y21	Z21	X22	Y22	Z22	X23	Y23	Z23	X24	Y24	Z24	X25	Y25	Z25	X26	Y26	Z26	X27	Y27	Z27	X28	Y28	Z28	X29	Y29	Z29	X30	Y30	Z30	X31	Y31	Z31	X32	Y32	Z32	X33	Y33	Z33	X34	Y34	Z34	X35	Y35	Z35	X36	Y36	Z36	X37	Y37	Z37	X38	Y38	Z38	X39	Y39	Z39	X40	Y40	Z40
1501	15	992.2521	1048.2964	-430.8321	801.7388	1054.2184	-518.5082	792.38	1051.276	-563.6268	798.1604	1058.1003	-613.6079	972.4057	1046.8287	-725.7648	1040.2429	743.7017	-401.1609	964.2417	714.7056	-389.9967	1002.4965	611.9603	-399.7117	1065.6423	502.625	-520.8709	1066.3915	511.8045	-404.6104	1116.4746	358.1799	-392.6013	1149.6323	251.3149	-404.7178	1037.2131	334.6075	-388.0514	1074.2828	226.9994	-390.8528	1143.8666	76.9069	-390.5972	1180.3823	104.6779	-481.8416	1099.602	29.0157	-452.4951	1263.3622	62.8025	-355.5938	1313.1442	80.5163	-440.2382	941.0998	744.839	-732.7596	916.602	639.3768	-721.2711	860.5318	757.725	-752.4935	839.2114	651.4481	-733.159	851.4919	494.992	-605.5201	848.2993	502.8624	-714.8883	813.4266	371.7911	-731.3887	736.9157	400.2377	-739.1703	700.8268	296.4	-733.3965	681.6459	86.8613	-726.7256	712.9085	95.6417	-627.6181	614.0811	51.436	-671.279	784.4876	33.4841	-743.1393	825.6878	45.4049	-643.2886	949.7364	1438.6929	-402.9936	928.2443	1445.4063	-728.4656	880.8269	1488.772	-565.4329	833.1504	1163.2523	-571.3658	1014.7201	1387.9463	-573.3779	1036.8403	1243.5642	-570.4247	802.6271	1391.2552	-481.0622
1502	15.01	994.3728	1047.9092	-428.5744	803.6674	1053.0737	-515.5321	794.3547	1049.8378	-560.6264	799.8405	1056.5499	-610.6519	973.748	1045.4096	-723.4813	1043.1277	743.4283	-399.0894	966.9851	714.2933	-388.8112	1005.181	611.6415	-399.101	1068.6014	502.9355	-520.3658	1069.3595	511.5436	-404.22	1117.8007	356.7905	-393.0907	1148.9797	249.3769	-405.5731	1038.1805	334.5823	-387.7811	1073.3962	226.3482	-391.0838	1139.2643	76.0461	-391.3036	1175.9412	102.179	-482.9066	1092.7624	29.8712	-452.7867	1258.4596	57.9604	-357.5096	1308.3541	73.1999	-442.648	942.0452	743.6876	-730.2626	917.3431	638.2237	-718.97	861.5024	756.7528	-749.6039	839.9397	650.4974	-730.5287	852.2824	493.743	-603.5565	848.6426	501.9728	-713.1394	811.5557	371.3846	-729.915	735.4718	401.2999	-737.4105	697.433	298.137	-732.2202	674.6897	88.3686	-726.7878	706.1282	96.7686	-627.5465	606.6768	53.9082	-671.3041	776.7595	33.6838	-743.2454	817.8865	45.3948	-643.1821	950.5637	1437.9719	-400.7202	928.6434	1444.1058	-726.2112	881.3018	1487.6803	-563.1956	834.6791	1161.9554	-568.9933	1015.4534	1387.1143	-571.0824	1037.986	1242.7925	-568.0994	803.5552	1389.927	-478.6459
1503	15.02	996.5855	1047.755	-426.3019	805.6912	1052.2115	-512.4956	796.5277	1048.6195	-557.5701	801.6443	1055.2429	-607.6432	975.226	1044.12	-721.1268	1045.994	743.3712	-396.8917	969.7387	714.1331	-387.362	1007.8456	611.5576	-398.1513	1071.1399	503.2796	-519.6772	1072.3484	511.485	-403.5494	1119.0988	355.6581	-393.301	1148.2334	247.7123	-406.1542	1039.1902	334.8123	-387.0072	1072.4904	226.0041	-390.7965	1134.4181	75.3414	-391.7506	1171.1446	99.9836	-483.6523	1085.6606	30.8416	-452.8154	1253.2449	53.3646	-359.2498	1303.1776	66.1726	-444.8815	943.2629	742.6909	-727.7354	918.4711	637.1942	-716.694	862.7078	755.8735	-746.5295	841.0155	649.6054	-727.7826	853.6935	492.4941	-601.6214	849.5874	501.1494	-711.3999	810.0974	371.1363	-728.4899	734.4722	402.6105	-735.6255	694.4099	300.1989	-731.0179	667.9514	90.2132	-726.8964	699.5873	98.217	-627.552	599.4335	56.9717	-671.3499	769.0997	33.8483	-743.3849	810.1137	45.366	-643.1006	951.383	1437.4098	-398.3679	929.0259	1442.9139	-723.9154	881.8018	1486.7515	-560.8958	836.2961	1160.8105	-566.5661	1016.2165	1386.4669	-568.7202	1039.2133	1242.2196	-565.6772	804.4908	1388.7441	-476.1645
1504	15.03	998.8613	1047.8774	-423.9935	807.7748	1051.6728	-509.4343	798.8846	1047.6622	-554.4962	803.5467	1054.2231	-604.6108	976.8384	1043.0166	-718.6857	1048.8612	743.5609	-394.6226	972.5352	714.2573	-385.5935	1010.5362	611.7349	-396.8093	1073.3005	503.6845	-518.7555	1075.3263	511.6224	-402.5881	1120.2837	354.7588	-393.2039	1147.3166	246.3136	-406.4468	1040.1681	335.2643	-385.7056	1071.4924	225.9502	-389.9873	1129.2921	74.8049	-391.9497	1166.0376	98.164	-484.0738	1078.4276	31.8329	-452.6436	1247.6875	49.2474	-360.6551	1297.6408	59.7572	-446.7294	944.8012	741.8781	-725.1866	920.0707	636.3085	-714.4698	864.1862	755.0981	-743.3316	842.5154	648.7715	-724.9761	855.8184	491.2489	-599.7552	851.2427	500.3929	-709.688	809.1348	371.0709	-727.15	734.0144	404.1949	-733.8447	691.8732	302.6095	-729.8032	661.4959	92.4473	-727.059	693.3659	100.0204	-627.6659	592.4213	60.7089	-671.4234	761.5086	33.9563	-743.5733	802.387	45.3135	-643.0499	952.189	1437.0358	-395.9394	929.3905	1441.8718	-721.5867	882.3224	1486.0159	-558.5418	837.9758	1159.8605	-564.0893	1017.0027	1386.0406	-566.302	1040.5143	1241.8825	-563.1649	805.4283	1387.7424	-473.6254
1505	15.04	1001.165	1048.2942	-421.6157	809.8821	1051.4679	-506.3753	801.3903	1046.9902	-551.4324	805.5151	1053.5177	-601.5768	978.5766	1042.1536	-716.1362	1051.7506	743.993	-392.3299	975.399	714.667	-383.4925	1013.2751	612.1704	-395.0803	1075.1685	504.1755	-517.5861	1078.2234	511.9194	-401.371	1121.2365	354.0406	-392.8236	1146.1147	245.1399	-406.4823	1040.9941	335.8883	-383.9348	1070.2809	226.1363	-388.7325	1123.8012	74.444	-391.9411	1160.6103	96.7363	-484.2193	1071.1132	32.7604	-452.3404	1241.7227	45.7883	-361.624	1291.7296	54.1916	-448.0548	946.7105	741.2695	-722.6184	922.2285	635.5818	-712.3123	865.9838	754.4243	-740.0764	844.5262	647.9828	-722.168	858.7604	490.0063	-597.9924	853.7169	499.7006	-708.0297	808.7649	371.2047	-725.9269	734.217	406.0667	-732.0944	689.9515	305.3842	-728.5912	655.4053	95.1233	-727.2871	687.562	102.2036	-627.9108	585.733	65.2	-671.5313	753.9932	34.0107	-743.8273	794.7234	45.2311	-643.0294	952.9724	1436.88	-393.4435	929.7383	1441.0195	-719.2303	882.8543	1485.4961	-556.1434	839.6896	1159.141	-561.5561	1017.8027	1385.8627	-563.8359	1041.8718	1241.8085	-560.5691	806.3594	1386.954	-471.0419
1506	15.05	1003.4579	1048.9935	-419.13	811.9825	1051.5738	-503.3314	803.9722	1046.6174	-548.3895	807.5107	1053.1314	-598.5522	980.4203	1041.5775	-713.4567	1054.6572	744.6218	-390.0455	978.3139	715.3322	-381.0949	1016.0228	612.8295	-393.0283	1076.7836	504.7572	-516.2044	1080.92	512.3169	-399.9681	1121.8267	353.4432	-392.2262	1144.5131	244.1387	-406.3287	1041.5245	336.6286	-381.8242	1068.7297	226.493	-387.1731	1117.8707	74.2566	-391.7883	1154.8324	95.6748	-484.1768	1063.724	33.563	-451.9713	1235.3084	43.0857	-362.1432	1285.429	49.6171	-448.8289	949.0387	740.8784	-720.0309	925.0198	635.0258	-710.2241	868.1513	753.8377	-736.8238	847.1362	647.2183	-719.4143	862.6229	488.7656	-596.3571	857.1127	499.0687	-706.4584	809.1023	371.545	-724.8481	735.2166	408.2248	-730.3964	688.7743	308.5313	-727.4004	649.7792	98.2917	-727.5886	682.285	104.7842	-628.2955	579.4838	70.5209	-671.6785	746.5804	34.0579	-744.1608	787.141	45.1171	-643.0333	953.7211	1436.9707	-390.8954	930.0721	1440.3901	-716.8499	883.3864	1485.2065	-553.7114	841.4075	1158.6775	-558.9495	1018.6043	1385.9487	-561.3303	1043.2626	1242.0131	-557.8984	807.2734	1386.4065	-468.4299
1507	15.06	1005.7038	1049.9386	-416.5011	814.0522	1051.9413	-500.3001	806.5115	1046.5546	-545.3619	809.4883	1053.048	-595.5345	982.333	1041.3228	-710.6313	1057.5276	745.3703	-387.7804	981.2036	716.1946	-378.48	1018.6655	613.6503	-390.7643	1078.0859	505.411	-514.6887	1083.2684	512.7477	-398.4672	1121.9347	352.9112	-391.5024	1142.4219	243.2575	-406.0724	1041.6178	337.4295	-379.5513	1066.7344	226.9476	-385.4868	1111.4746	74.2263	-391.5682	1148.6816	94.9253	-484.051	1056.2533	34.209	-451.5927	1228.4569	41.1385	-362.2852	1278.7471	46.067	-449.1291	951.8262	740.7127	-717.4262	928.5037	634.6482	-708.2019	870.7363	753.3179	-733.6232	850.424	646.455	-716.7648	867.4963	487.5307	-594.8616	861.5181	498.4938	-705.0098	810.2716	372.0913	-723.9362	737.1597	410.6518	-728.7653	688.4672	312.0497	-726.2474	644.732	101.9965	-727.9593	677.6459	107.7734	-628.8148	573.8078	76.7378	-671.8656	739.3164	34.1858	-744.5805	779.6681	44.9783	-643.0533	954.426	1437.3309	-388.3144	930.3943	1440.0059	-714.4487	883.9075	1485.1547	-551.2572	843.1002	1158.4828	-556.246	1019.394	1386.3032	-558.7949	1044.6583	1242.4985	-555.1631	808.1611	1386.1216	-465.803
1508	15.07	1007.8744	1051.0796	-413.7079	816.0698	1052.5095	-497.2672	808.8731	1046.8032	-542.335	811.3986	1053.236	-592.5094	984.2588	1041.4061	-707.6572	1060.2572	746.1461	-385.5279	983.9377	717.1744	-375.7546	1021.0332	614.5525	-388.4212	1078.9374	506.1033	-513.1323	1085.1232	513.149	-396.956	1121.464	352.4008	-390.744	1139.7869	242.4504	-405.7934	1041.1553	338.2376	-377.3105	1064.2195	227.4347	-383.8517	1104.6418	74.3239	-391.3542	1142.1615	94.419	-483.9395	1048.6946	34.6946	-451.2486	1221.2336	39.858	-362.1741	1271.7234	43.4739	-449.0986	955.1005	740.774	-714.8113	932.7193	634.4521	-706.2444	873.7758	752.8424	-730.5101	854.4459	645.6751	-714.2618	873.4493	486.3093	-593.5099	866.9951	497.9731	-703.7165	812.3877	372.8375	-723.2043	740.1791	413.3186	-727.2075	689.1451	315.9258	-725.1421	640.382	106.2744	-728.3829	673.7413	111.1739	-629.4518	568.8516	83.9011	-672.0861	732.2549	34.5007	-745.0807	772.3492	44.8352	-643.082	955.0844	1437.9756	-385.7187	930.7052	1439.8766	-712.0294	884.4063	1485.3401	-548.7918	844.7411	1158.5547	-553.4229	1020.158	1386.9194	-556.2407	1046.0281	1243.2532	-552.3774	809.0172	1386.111	-463.169
1509	15.08	1009.9516	1052.3641	-410.7529	818.0101	1053.2214	-494.2153	810.9654	1047.3381	-539.295	813.1888	1053.6552	-589.4571	986.1248	1041.8254	-704.5489	1062.7115	746.8576	-383.2735	986.3562	718.1867	-373.0309	1022.9401	615.4525	-386.1264	1079.1942	506.7925	-511.6161	1086.3619	513.4707	-395.5055	1120.3474	351.8807	-390.0215	1136.5903	241.6811	-405.5442	1040.0515	339.0041	-375.2755	1061.1398	227.9014	-382.4119	1097.4416	74.5139	-391.2004	1135.3019	94.0868	-483.9132	1041.046	35.0355	-450.9677	1213.7295	39.1037	-361.9384	1264.4204	41.6989	-448.8898	958.869	741.0574	-712.199	937.6818	634.4371	-704.3576	877.2902	752.3892	-727.5071	859.2261	644.8685	-711.9394	880.5218	485.1109	-592.3068	873.567	497.5056	-702.6036	815.5361	373.7736	-722.6542	744.366	416.1933	-725.7235	690.9013	320.1354	-724.0829	636.8403	111.1566	-728.8382	670.6404	114.9847	-630.1776	564.7604	92.0427	-672.3265	725.4511	35.1151	-745.6395	765.2441	44.7311	-643.1156	955.7011	1438.9066	-383.1255	930.9998	1439.9982	-709.595	884.872	1485.7506	-546.326	846.309	1158.8751	-550.4642	1020.8836	1387.7779	-553.6807	1047.3395	1244.2528	-549.559	809.8425	1386.3711	-460.5283
1510	15.09	1011.9263	1053.7429	-407.6665	819.8436	1054.0309	-491.1321	812.7764	1048.1017	-536.2347	814.8065	1054.2607	-586.3614	987.8497	1042.5574	-701.3413	1064.7599	747.4287	-381.0038	988.3049	719.1615	-370.4065	1024.2279	616.2813	-383.979	1078.7716	507.4368	-510.1904	1086.8989	513.6791	-394.1563	1118.5481	351.3318	-389.3702	1132.8469	240.923	-405.3425	1038.2566	339.6906	-373.5632	1057.4786	228.3101	-381.2524	1089.9646	74.7575	-391.1332	1128.1456	93.8709	-484.0065	1033.3096	35.2579	-450.7625	1206.0326	38.7247	-361.6776	1256.9056	40.5688	-448.6248	963.1138	741.5513	-709.6104	943.3754	634.6004	-702.5559	881.2803	751.9396	-724.6263	864.7521	644.0332	-709.8207	888.7189	483.9479	-591.2623	881.2089	497.0944	-701.6836	819.7629	374.8874	-722.2747	749.7562	419.2455	-724.3113	693.794	324.6454	-723.0562	634.2019	116.6738	-729.2989	668.3842	119.2124	-630.9513	561.6623	101.1758	-672.5699	718.9614	36.1542	-746.2203	758.4215	44.7447	-643.1533	956.2876	1440.11	-380.5523	931.2665	1440.3518	-707.1489	885.2948	1486.3605	-543.8692	847.7867	1159.4125	-547.3663	1021.5599	1388.8474	-551.1307	1048.5638	1245.4618	-546.7291	810.6437	1386.8817	-457.8754
